<svg xmlns:dc="http://purl.org/dc/elements/1.1/" xmlns:cc="http://creativecommons.org/ns#" xmlns:rdf="http://www.w3.org/1999/02/22-rdf-syntax-ns#" xmlns:svg="http://www.w3.org/2000/svg" xmlns="http://www.w3.org/2000/svg" xmlns:sodipodi="http://sodipodi.sourceforge.net/DTD/sodipodi-0.dtd" xmlns:inkscape="http://www.inkscape.org/namespaces/inkscape" version="1.1" x="0px" y="0px" viewBox="0 0 64 80" style="enable-background:new 0 0 64 64;" xml:space="preserve">
  <style type="text/css">
    .st0{display:none;}
    .st1{display:inline;}
    .st2{fill:#64ffda;stroke:#B3B3B3;stroke-width:0.1;stroke-miterlimit:10;}
  </style>
  <g class="st0">
    <g class="st1">
      <rect x="2" y="2" class="st2" width="60" height="60"/>
      <line class="st2" x1="32" y1="2" x2="32" y2="62"/>
      <line class="st2" x1="62" y1="32" x2="2" y2="32"/>
      <line class="st2" x1="2" y1="2" x2="62" y2="62"/>
      <rect x="10" y="10" class="st2" width="44" height="44"/>
      <line class="st2" x1="62" y1="2" x2="2" y2="62"/>
      <line class="st2" x1="2" y1="32" x2="32" y2="2"/>
      <line class="st2" x1="32" y1="2" x2="62" y2="32"/>
      <line class="st2" x1="62" y1="32" x2="32" y2="62"/>
      <line class="st2" x1="32" y1="62" x2="2" y2="32"/>
      <circle class="st2" cx="32" cy="32" r="21"/>
    </g>
  </g>
  <path fill="#64ffda" d="M 27 4 C 23.7 4 21 6.7 21 10 L 21 12 L 6 12 C 3.8 12 2 13.8 2 16 L 2 25 L 16 25 L 16 21 L 24 21 L 24 25 L 40 25 L 40 21 L 48 21 L 48 25 L 62 25 L 62 16 C 62 13.8 60.2 12 58 12 L 43 12 L 43 10 C 43 6.7 40.3 4 37 4 L 27 4 z M 27 8 L 37 8 C 38.1 8 39 8.9 39 10 L 39 12 L 25 12 L 25 10 C 25 8.9 25.9 8 27 8 z "/>
  <rect fill="#64ffda" height="6" width="4" y="23" x="42"/>
  <rect fill="#64ffda" height="6" width="4" y="23" x="18"/>
  <path fill="#64ffda" d="m 36,55 -1.1,1.1 C 34.3,56.7 33.6,57 32.8,57 h -1.5 c -0.8,0 -1.6,-0.3 -2.1,-0.9 L 28,55 C 27.4,54.4 26.9,53.6 26.7,52.7 L 26.3,51.2 C 26.1,50.4 26,49.6 26,48.8 V 46 c 0,-3.3 2.7,-6 6,-6 v 0 c 3.3,0 6,2.7 6,6 v 2.8 c 0,0.8 -0.1,1.6 -0.3,2.4 l -0.4,1.5 C 37.1,53.5 36.7,54.3 36,55 Z"/>
  <path fill="#64ffda" d="m 48,27 v 4 H 40 V 27 H 24 v 4 H 16 V 27 H 2 v 17 c 0,2.2 1.8,4 4,4 h 11.1 c 0.3,-1.9 1.5,-3.5 3.1,-4.3 1.1,-5.5 6,-9.7 11.8,-9.7 5.8,0 10.7,4.2 11.8,9.7 1.7,0.9 2.8,2.5 3.1,4.3 H 58 c 2.2,0 4,-1.8 4,-4 V 27 Z"/>
  <path fill="#64ffda" d="M 45,49 C 45,47.1 43.7,45.6 42,45.1 41.5,40 37.2,36 32,36 c -5.2,0 -9.5,4 -10,9.1 -1.7,0.4 -3,2 -3,3.9 0,2.2 1.8,4 4,4 0.3,0 0.7,-0.1 1,-0.1 V 46 c 0,-4.4 3.6,-8 8,-8 4.4,0 8,3.6 8,8 v 5.9 l -0.9,3 c -0.6,2 -2.2,3.4 -4.3,3.6 l -2,0.2 c -0.5,0.1 -0.9,0.5 -0.9,1 v 0 c 0,0.6 0.5,1.1 1.1,1 l 2,-0.2 c 2.8,-0.3 5.2,-2.3 6,-5 L 41.7,53 C 43.6,52.6 45,50.9 45,49 Z"/>
</svg>