<svg xmlns="http://www.w3.org/2000/svg" width="121" height="22" viewBox="0 0 121 22" aria-hidden="true"><path fill="white" fillRule="evenodd" d="M119.557 6.519c-.475.469-1.04.7-1.701.7-.668 0-1.24-.237-1.715-.706-.469-.469-.706-1.04-.706-1.708 0-.662.237-1.22.713-1.689.468-.469 1.04-.7 1.708-.7.661 0 1.226.237 1.701.7.469.469.707 1.027.707 1.689 0 .674-.238 1.245-.707 1.714zm-.295-3.159c-.379-.392-.854-.591-1.413-.591-.558 0-1.027.193-1.406.584-.379.392-.572.88-.572 1.452 0 .584.193 1.072.572 1.47.379.392.848.591 1.413.591.558 0 1.027-.206 1.406-.597.379-.398.565-.886.565-1.464 0-.572-.186-1.053-.565-1.445zm-.681 2.857l-.764-1.207h-.462v1.207h-.437V3.411h1.111c.61 0 .957.251.957.803 0 .424-.225.7-.739.764l.803 1.239h-.469zm-.032-2.022c0-.296-.199-.431-.591-.431h-.603v.893h.501c.526 0 .693-.128.693-.462zm-13.593 12.136V9.298h-2.984V6.572h2.984V2.478h2.898v4.094H112v2.726h-4.146v6.967c0 2.111 1.258 2.916 3.082 2.916.343 0 .754-.034 1.064-.124v2.636c-.465.119-1.127.181-1.659.181-3.242 0-5.385-1.854-5.385-5.543zm-6.32-2.885c0-2.663-1.607-4.369-4.059-4.369-1.761 0-3.488.934-4.339 2.42v10.194h-2.922V6.57h2.922v2.201c.943-1.52 2.926-2.511 5.002-2.511 3.836 0 6.288 2.664 6.288 6.786v8.645h-2.892v-8.245zm-25.505 1.138c.227 2.884 2.129 4.79 5.084 4.818 2.134.02 3.88-.986 4.272-2.592l2.888.024c-.595 3.155-3.57 5.175-7.281 5.137-4.465-.038-7.832-3.512-7.788-8.001.043-4.37 3.507-7.778 7.909-7.735 4.117.039 7.387 3.198 7.348 7.563-.004.281-.033.653-.072.901l-12.36-.115zm4.934-5.966c-2.418-.024-4.228 1.482-4.789 3.798l9.153.086c-.131-2.264-1.94-3.86-4.364-3.884zM63.1 16.331V0h2.898v16.265c0 2.111 1.258 2.916 3.081 2.916.349 0 .755-.034 1.07-.124v2.636c-.47.119-1.132.181-1.664.181-3.242 0-5.385-1.854-5.385-5.543zm-5.624 3.157c-.852 1.429-2.99 2.511-5.128 2.511-4.243 0-7.484-3.436-7.484-7.868s3.241-7.868 7.484-7.868c2.172 0 4.31 1.082 5.128 2.507V6.568h2.922v15.121h-2.922v-2.201zm0-7.992c-.818-1.487-2.676-2.54-4.562-2.54-2.956 0-5.22 2.197-5.22 5.175 0 2.945 2.264 5.171 5.22 5.171 1.886 0 3.744-1.049 4.562-2.507v-5.299zm-20.351 7.778c2.013 0 3.866-1.177 4.272-2.917h2.932C43.884 19.674 40.744 22 37.125 22c-4.465 0-7.928-3.407-7.928-7.839 0-4.461 3.463-7.902 7.928-7.902 3.585 0 6.696 2.355 7.204 5.519h-2.956c-.44-1.615-2.235-2.793-4.248-2.793-2.897 0-5.098 2.231-5.098 5.176 0 2.878 2.201 5.113 5.098 5.113zm-8.935-1.951c0 2.697-2.52 4.679-5.848 4.679-3.585 0-6.139-1.892-6.449-4.961h2.768c.188 1.487 1.601 2.484 3.555 2.484 1.916 0 3.144-.873 3.144-2.14 0-3.751-9.123-.901-9.123-6.663 0-2.573 2.201-4.46 5.631-4.46 3.047 0 5.694 1.639 6.071 4.551h-2.927c-.184-1.206-1.446-2.135-3.207-2.135-1.601 0-2.738.715-2.738 1.825 0 3.593 9.123.562 9.123 6.82zM2.826 14.584c.227 2.884 2.128 4.79 5.084 4.818 2.133.02 3.88-.986 4.272-2.592l2.888.024c-.595 3.155-3.571 5.175-7.281 5.137-4.465-.038-7.832-3.512-7.788-8.001C.044 9.6 3.508 6.192 7.91 6.235c4.117.039 7.387 3.198 7.343 7.563 0 .281-.029.653-.067.901l-12.36-.115zM7.76 8.618c-2.419-.024-4.228 1.482-4.789 3.798l9.153.086c-.131-2.264-1.94-3.86-4.364-3.884z"></path></svg>