<svg xmlns="http://www.w3.org/2000/svg" xmlns:xlink="http://www.w3.org/1999/xlink" version="1.1" x="0px" y="0px" viewBox="0 0 96 120" style="enable-background:new 0 0 96 96;" xml:space="preserve"><path fill="#64ffda" d="M86.41,18.176H63.332c-0.645,0-1.169,0.523-1.169,1.169c0,0.645,0.523,1.169,1.169,1.169H86.41  c2.345,0,4.252,1.908,4.252,4.252v39.528H77.207l-0.001-2.484c0-0.645-0.524-1.168-1.169-1.168h-0.613l-0.001-3.878  c2.96-0.673,5.678-2.162,7.877-4.361c3.076-3.077,4.77-7.169,4.769-11.521c-0.003-8.984-7.314-16.292-16.298-16.292  c-4.352,0-8.443,1.695-11.52,4.772c-3.077,3.078-4.77,7.169-4.769,11.521c0.002,7.731,5.42,14.218,12.656,15.877l0.001,3.882h-0.612  c-0.31,0-0.607,0.123-0.827,0.342c-0.219,0.219-0.342,0.517-0.342,0.827l0.001,2.484H5.338V24.766c0-2.345,1.907-4.252,4.252-4.252  h23.078c0.645,0,1.169-0.523,1.169-1.169c0-0.645-0.523-1.169-1.169-1.169H9.59c-3.633,0-6.59,2.956-6.59,6.59v46.207  c0,3.634,2.956,6.59,6.59,6.59h23.498v4.663h-8.715c-2.389,0-4.333,1.944-4.333,4.333v3.164c0,0.645,0.523,1.169,1.169,1.169h53.582  c0.645,0,1.169-0.523,1.169-1.169v-3.164c0-2.389-1.943-4.333-4.333-4.333h-8.715v-4.663h3.554c0.43,1.957,2.176,3.426,4.26,3.426  h2.123c1.162,0,2.256-0.455,3.081-1.28c0.599-0.599,0.999-1.341,1.176-2.146h9.303c3.634,0,6.59-2.956,6.59-6.59V24.766  C93,21.132,90.044,18.176,86.41,18.176z M57.821,40.881c-0.001-3.727,1.449-7.232,4.084-9.868s6.139-4.087,9.867-4.087  c7.695,0,13.958,6.26,13.96,13.956c0.001,3.728-1.449,7.232-4.084,9.868c-2.635,2.636-6.139,4.087-9.866,4.087  C64.086,54.837,57.824,48.576,57.821,40.881z M70.477,57.118c0.431,0.034,0.865,0.057,1.304,0.057c0.438,0,0.873-0.022,1.305-0.056  l0.001,3.523h-2.61L70.477,57.118z M5.338,70.973v-4.341h61.024l0.003,8.593H9.59C7.245,75.225,5.338,73.318,5.338,70.973z   M73.622,86.558v1.995H22.378v-1.995c0-1.1,0.895-1.995,1.995-1.995h47.254C72.727,84.563,73.622,85.458,73.622,86.558z   M60.575,82.226h-25.15v-4.663h25.15V82.226z M74.279,78.056c-0.384,0.384-0.891,0.595-1.428,0.595h-2.123  c-1.116,0-2.025-0.908-2.025-2.024l-0.004-13.648h0.612c0,0,0,0,0,0h4.947c0,0,0,0,0,0h0.612l0.001,2.481c0,0.001,0,0.002,0,0.003  c0,0.001,0,0.002,0,0.003l0.003,11.162C74.874,77.165,74.662,77.672,74.279,78.056z M86.41,75.225h-9.2l-0.003-8.593h13.454v4.341  C90.662,73.318,88.755,75.225,86.41,75.225z M48,74.564c2.005,0,3.635-1.631,3.635-3.635S50.005,67.293,48,67.293  s-3.635,1.631-3.635,3.635S45.995,74.564,48,74.564z M48,69.631c0.715,0,1.298,0.582,1.298,1.298S48.715,72.226,48,72.226  s-1.298-0.582-1.298-1.298S47.285,69.631,48,69.631z M41.876,29.385c-0.396-0.51-0.304-1.244,0.205-1.64  c1.633-1.27,3.591-1.941,5.664-1.941c2.073,0,4.031,0.671,5.663,1.941c0.509,0.396,0.601,1.131,0.205,1.64  c-0.23,0.296-0.575,0.451-0.923,0.451c-0.251,0-0.504-0.08-0.717-0.246c-1.218-0.948-2.68-1.448-4.228-1.448  c-1.548,0-3.01,0.501-4.228,1.448C43.006,29.986,42.272,29.895,41.876,29.385z M54.734,23.425c-2.058-1.427-4.475-2.182-6.989-2.182  c-2.515,0-4.932,0.754-6.99,2.182c-0.203,0.141-0.435,0.209-0.665,0.209c-0.37,0-0.734-0.175-0.961-0.503  c-0.368-0.53-0.236-1.259,0.294-1.627c2.451-1.7,5.328-2.599,8.322-2.599c2.993,0,5.871,0.899,8.322,2.599  c0.53,0.368,0.662,1.096,0.294,1.627C55.992,23.662,55.264,23.793,54.734,23.425z M57.688,17.302  c-2.956-1.935-6.395-2.957-9.944-2.957c-3.613,0-7.103,1.057-10.094,3.056c-0.2,0.133-0.425,0.197-0.649,0.197  c-0.377,0-0.747-0.182-0.973-0.519c-0.359-0.537-0.215-1.262,0.322-1.621c3.376-2.257,7.316-3.451,11.393-3.451  c4.005,0,7.886,1.155,11.224,3.339c0.54,0.353,0.692,1.078,0.338,1.618C58.953,17.504,58.228,17.656,57.688,17.302z M33.472,10.787  c-0.348-0.544-0.189-1.266,0.354-1.615c4.153-2.658,8.965-4.063,13.918-4.063c4.953,0,9.765,1.405,13.918,4.063  c0.544,0.348,0.702,1.071,0.354,1.615c-0.223,0.349-0.6,0.539-0.986,0.539c-0.216,0-0.434-0.06-0.629-0.185  c-3.776-2.417-8.153-3.694-12.658-3.694c-4.505,0-8.882,1.277-12.658,3.694C34.543,11.489,33.82,11.33,33.472,10.787z   M71.774,31.691c-0.645,0-1.169-0.523-1.169-1.169s0.523-1.169,1.169-1.169c6.357,0,11.53,5.171,11.532,11.528  c0,0.645-0.523,1.169-1.168,1.169c0,0,0,0,0,0c-0.645,0-1.169-0.523-1.169-1.168C80.966,35.814,76.842,31.691,71.774,31.691z   M19.764,34.686c-4.021,0-7.291,3.271-7.291,7.291c0,4.02,3.271,7.291,7.291,7.291h34.044c0.645,0,1.169-0.523,1.169-1.169  c0-0.645-0.523-1.169-1.169-1.169H26.866v-9.907h26.208c0.645,0,1.169-0.523,1.169-1.169c0-0.645-0.523-1.169-1.169-1.169H19.764z   M24.528,46.93h-4.764c-2.731,0-4.954-2.222-4.954-4.953c0-2.731,2.222-4.954,4.954-4.954h4.764V46.93z M43.093,40.808  c0.645,0,1.169,0.523,1.169,1.169c0,0.645-0.523,1.169-1.169,1.169h-13.5c-0.645,0-1.169-0.523-1.169-1.169  c0-0.645,0.523-1.169,1.169-1.169H43.093z M51.014,40.808c0.645,0,1.169,0.523,1.169,1.169c0,0.645-0.523,1.169-1.169,1.169H48.02  c-0.645,0-1.169-0.523-1.169-1.169c0-0.645,0.523-1.169,1.169-1.169H51.014z"/></svg>