<svg xmlns="http://www.w3.org/2000/svg" data-name="Layer 1" viewBox="0 0 95 118.75" x="0px" y="0px"><defs><style>
      .cls-1 {
        fill-rule: evenodd;
        stroke-width: 0px;
      }
    </style></defs><path fill="#64ffda" class="cls-1" d="m50.07,39.42h-3.99v3.99h3.99v-3.99h0Zm-5.1-2.21h6.2c.61,0,1.11.5,1.11,1.11v6.2c0,.61-.5,1.11-1.11,1.11h-6.2c-.61,0-1.11-.5-1.11-1.11v-6.2c0-.61.5-1.11,1.11-1.11h0Zm18.09,2.21h-3.99v3.99h3.99v-3.99h0Zm-5.1-2.21h6.2c.61,0,1.11.5,1.11,1.11v6.2c0,.61-.5,1.11-1.11,1.11h-6.2c-.61,0-1.11-.5-1.11-1.11v-6.2c0-.61.5-1.11,1.11-1.11h0Zm18.09,2.21h-3.99v3.99h3.99v-3.99h0Zm-5.1-2.21h6.2c.61,0,1.11.5,1.11,1.11v6.2c0,.61-.5,1.11-1.11,1.11h-6.2c-.61,0-1.11-.5-1.11-1.11v-6.2c0-.61.5-1.11,1.11-1.11h0Zm-20.89,19.2v-3.99h-3.99v3.99h3.99Zm2.21-5.1v6.2c0,.61-.5,1.11-1.11,1.11h-6.2c-.61,0-1.11-.5-1.11-1.11v-6.2c0-.61.5-1.11,1.11-1.11h6.2c.61,0,1.11.5,1.11,1.11h0Zm-2.21,18.09v-3.99h-3.99v3.99h3.99Zm2.21-5.1v6.2c0,.61-.5,1.11-1.11,1.11h-6.2c-.61,0-1.11-.5-1.11-1.11v-6.2c0-.61.5-1.11,1.11-1.11h6.2c.61,0,1.11.5,1.11,1.11h0Zm10.78-7.9v-3.99h-3.99v3.99h3.99Zm2.21-5.1v6.2c0,.61-.5,1.11-1.11,1.11h-6.2c-.61,0-1.11-.5-1.11-1.11v-6.2c0-.61.5-1.11,1.11-1.11h6.2c.61,0,1.11.5,1.11,1.11h0Zm-2.21,18.09v-3.99h-3.99v3.99h3.99Zm2.21-5.1v6.2c0,.61-.5,1.11-1.11,1.11h-6.2c-.61,0-1.11-.5-1.11-1.11v-6.2c0-.61.5-1.11,1.11-1.11h6.2c.61,0,1.11.5,1.11,1.11h0Zm10.78-7.9v-3.99h-3.99v3.99h3.99Zm2.21-5.1v6.2c0,.61-.5,1.11-1.11,1.11h-6.2c-.61,0-1.11-.5-1.11-1.11v-6.2c0-.61.5-1.11,1.11-1.11h6.2c.61,0,1.11.5,1.11,1.11h0ZM24.61,31.79v24.93h-2.21v-24.93h2.21Zm50.37-23.2h-30.1c-.3,0-.57.12-.76.32-.2.2-.32.47-.32.76v19.7c0,.3.12.57.32.76s.47.32.76.32h30.1c.3,0,.57-.12.76-.32.2-.2.32-.47.32-.76V9.66c0-.3-.12-.57-.32-.76-.2-.2-.47-.32-.76-.32h0Zm-26.62,12.04c-.61,0-1.11-.5-1.11-1.11s.5-1.11,1.11-1.11h4.35c.61,0,1.11.5,1.11,1.11s-.5,1.11-1.11,1.11h-4.35Zm9.4,0c-.61,0-1.11-.5-1.11-1.11s.5-1.11,1.11-1.11h4.35c.61,0,1.11.5,1.11,1.11s-.5,1.11-1.11,1.11h-4.35Zm9.4,0c-.61,0-1.11-.5-1.11-1.11s.5-1.11,1.11-1.11h4.35c.61,0,1.11.5,1.11,1.11s-.5,1.11-1.11,1.11h-4.35Zm-41.77-2.96c-.48-.48-1.15-.78-1.88-.78s-1.4.3-1.88.78-.78,1.15-.78,1.88.3,1.4.78,1.88,1.15.78,1.88.78,1.4-.3,1.88-.78.78-1.15.78-1.88-.3-1.4-.78-1.88h0Zm-1.88-2.99c1.35,0,2.56.55,3.45,1.43.88.88,1.43,2.1,1.43,3.45s-.55,2.56-1.43,3.45c-.88.88-2.1,1.43-3.45,1.43s-2.56-.55-3.45-1.43c-.88-.88-1.43-2.1-1.43-3.45s.55-2.56,1.43-3.45c.88-.88,2.1-1.43,3.45-1.43h0Zm-8.28,58.6v3.75c0,1.23.5,2.34,1.31,3.15.81.81,1.93,1.31,3.15,1.31h7.63c1.23,0,2.34-.5,3.15-1.31.81-.81,1.31-1.93,1.31-3.15v-3.75H15.22Zm0-3.47v1.26h16.56v-1.26H15.22Zm0-55.78v8.3c1.08,10.39,1.62,19.45,1.62,27.17,0,7.14-.46,13.17-1.38,18.1h16.08c-.92-4.93-1.38-10.96-1.38-18.1,0-7.72.54-16.78,1.62-27.17v-8.3c0-1.05-.43-2-1.12-2.69-.69-.69-1.65-1.12-2.69-1.12h-8.93c-1.05,0-2,.43-2.69,1.12s-1.12,1.65-1.12,2.69h0Zm-2.21,8.33v-6.57H3.37c-.24,0-.46.1-.61.26s-.26.37-.26.61v58.41c0,.24.1.46.26.61.16.16.37.26.61.26h9.64v-7.23c0-.1.01-.2.04-.3,1.05-4.99,1.58-11.29,1.58-18.91s-.54-16.71-1.61-27.03c0-.04,0-.08,0-.11h0Zm69.24,45.64c-.55-.55-1.31-.89-2.14-.89s-1.59.34-2.14.89c-.55.55-.89,1.31-.89,2.14s.34,1.59.89,2.14c.55.55,1.31.89,2.14.89s1.59-.34,2.14-.89c.55-.55.89-1.31.89-2.14s-.34-1.59-.89-2.14h0Zm-8.84,14.08c0,.61-.5,1.11-1.11,1.11s-1.11-.5-1.11-1.11c0-2.46,1-4.69,2.61-6.3.77-.77,1.68-1.4,2.68-1.84-.03-.03-.06-.06-.09-.09-.95-.95-1.54-2.26-1.54-3.71s.59-2.76,1.54-3.71c.95-.95,2.26-1.54,3.71-1.54s2.76.59,3.71,1.54,1.54,2.26,1.54,3.71-.59,2.76-1.54,3.71c-.03.03-.06.06-.09.09,1.01.45,1.91,1.08,2.68,1.84,1.61,1.61,2.61,3.84,2.61,6.3,0,.61-.5,1.11-1.11,1.11s-1.11-.5-1.11-1.11c0-1.85-.75-3.52-1.96-4.73-1.21-1.21-2.89-1.96-4.73-1.96s-3.52.75-4.73,1.96-1.96,2.89-1.96,4.73h0Zm15.46-16.8c2.24,2.24,3.63,5.34,3.63,8.76s-1.39,6.52-3.63,8.76-5.34,3.63-8.76,3.63-6.52-1.39-8.76-3.63-3.63-5.34-3.63-8.76,1.39-6.52,3.63-8.76,5.34-3.63,8.76-3.63,6.52,1.39,8.76,3.63h0Zm-7.9-5.82c-.29-.02-.57-.03-.86-.03-4.03,0-7.68,1.63-10.33,4.28-2.64,2.64-4.28,6.29-4.28,10.33,0,.64.04,1.27.12,1.89h-31.63v-7.23h0c0-.08,0-.15-.02-.23-1.06-5-1.59-11.32-1.59-18.97s.53-16.67,1.6-26.95c.01-.06.02-.13.02-.2v-6.57h7.59v13.6c0,.91.37,1.73.97,2.33.6.6,1.42.97,2.33.97h30.1c.91,0,1.73-.37,2.33-.97.6-.6.97-1.42.97-2.33v-13.6h1.84c.24,0,.46.1.61.26s.26.37.26.61v42.81Z"/></svg>